# xmcd
#
# Track frame offsets:
#   150
#   14966
#   30750
#   44577
#   58466
#   70202
#   82592
#   94628
#   107091
#   121907
#
# Disc length: 1884 seconds
#
# Revision: 0
# Processed by: cddbd v1.4PL0 Copyright (c) Steve Scherf et al.
# Submitted via: uFREEDB 1.6.0
#
DISCID=7e075a0a
DTITLE=Martin, Dean - I Take A Lot Of Pride In What I Am
DYEAR=1968
DGENRE=Country
TTITLE0=I Take A Lot Of Pride In What I Am
TTITLE1=Make It Rain
TTITLE2=Where The Blue And Lonely Go
TTITLE3=If You Ever Get Around To Loving Me
TTITLE4=Do You Believe This Town
TTITLE5=One Cup Of Happiness
TTITLE6=Sun Is Sunshine (On Everybody But Me)
TTITLE7=Sneaky Little Side Of Me
TTITLE8=Crying Time
TTITLE9=Little Green Apples
EXTD=
EXTT0=
EXTT1=
EXTT2=
EXTT3=
EXTT4=
EXTT5=
EXTT6=
EXTT7=
EXTT8=
EXTT9=
PLAYORDER=
